<?xml version="1.0" encoding="UTF-8"?>
<!DOCTYPE svg PUBLIC "-//W3C//DTD SVG 1.1//EN" "http://www.w3.org/Graphics/SVG/1.1/DTD/svg11.dtd">
<svg xmlns="http://www.w3.org/2000/svg" version="1.1" width="1601px" height="422px" style="shape-rendering:geometricPrecision; text-rendering:geometricPrecision; image-rendering:optimizeQuality; fill-rule:evenodd; clip-rule:evenodd" xmlns:xlink="http://www.w3.org/1999/xlink">
<g><path style="opacity:0.972" fill="#ed0e0e" d="M 122.5,-0.5 C 163.833,-0.5 205.167,-0.5 246.5,-0.5C 246.667,34.1683 246.5,68.8349 246,103.5C 204.413,69.1534 163.247,34.4868 122.5,-0.5 Z"/></g>
<g><path style="opacity:0.998" fill="#ed0e0e" d="M -0.5,0.5 C 33.8333,0.5 68.1667,0.5 102.5,0.5C 102.5,64.8333 102.5,129.167 102.5,193.5C 126.167,193.5 149.833,193.5 173.5,193.5C 173.5,205.167 173.5,216.833 173.5,228.5C 149.833,228.5 126.167,228.5 102.5,228.5C 102.667,270.501 102.5,312.501 102,354.5C 94.6527,393.349 71.486,415.682 32.5,421.5C 28.1667,421.5 23.8333,421.5 19.5,421.5C 12.8775,420.576 6.21085,419.242 -0.5,417.5C -0.5,278.5 -0.5,139.5 -0.5,0.5 Z"/></g>
<g><path style="opacity:0.991" fill="#ed0e0e" d="M 636.5,421.5 C 595.5,421.5 554.5,421.5 513.5,421.5C 485.344,376.528 457.178,331.528 429,286.5C 428.5,331.499 428.333,376.499 428.5,421.5C 393.833,421.5 359.167,421.5 324.5,421.5C 324.333,308.166 324.5,194.833 325,81.5C 359.258,54.6204 393.424,27.6204 427.5,0.5C 428.333,94.1649 428.833,187.832 429,281.5C 453.167,261.333 477.333,241.167 501.5,221C 503.691,219.081 506.024,217.747 508.5,217C 551.564,284.97 594.23,353.137 636.5,421.5 Z"/></g>
<g><path style="opacity:0.969" fill="#ed0f0f" d="M 507.5,85.5 C 547.506,85.1668 587.506,85.5001 627.5,86.5C 588.15,119.847 548.483,152.847 508.5,185.5C 507.5,152.173 507.167,118.84 507.5,85.5 Z"/></g>
<g><path style="opacity:0.993" fill="#ed0e0e" d="M 846.5,421.5 C 843.5,421.5 840.5,421.5 837.5,421.5C 780.572,415.79 735.405,389.79 702,343.5C 673.598,297.551 667.931,248.884 685,197.5C 710.351,137.221 755.184,100.721 819.5,88C 828.488,86.3781 837.488,85.8781 846.5,86.5C 834.761,93.0725 825.928,102.406 820,114.5C 807.888,139.506 800.221,165.84 797,193.5C 789.192,248.201 792.525,302.201 807,355.5C 812.56,375.618 821.56,393.951 834,410.5C 838.405,414.084 842.572,417.75 846.5,421.5 Z"/></g>
<g><path style="opacity:0.992" fill="#ed0e0e" d="M 870.5,421.5 C 867.5,421.5 864.5,421.5 861.5,421.5C 876.662,409.807 887.495,394.807 894,376.5C 908.774,336.688 915.941,295.521 915.5,253C 915.978,211.341 909.478,170.841 896,131.5C 890.378,116.41 881.878,103.243 870.5,92C 867.672,89.7519 864.672,87.7519 861.5,86C 925.269,88.7931 974.769,116.626 1010,169.5C 1039.98,223.28 1040.98,277.614 1013,332.5C 980.095,385.377 932.595,415.044 870.5,421.5 Z"/></g>
<g><path style="opacity:0.989" fill="#ec0e0e" d="M 1405.5,421.5 C 1370.5,421.5 1335.5,421.5 1300.5,421.5C 1300.5,328.833 1300.5,236.167 1300.5,143.5C 1276.49,143.833 1252.49,143.5 1228.5,142.5C 1247.46,127.678 1266.46,112.844 1285.5,98C 1317.26,80.1107 1347.93,81.7774 1377.5,103C 1393.94,117.039 1403.1,134.872 1405,156.5C 1405.5,244.833 1405.67,333.166 1405.5,421.5 Z"/></g>
<g><path style="opacity:0.991" fill="#ed0f0f" d="M 1600.5,159.5 C 1600.5,246.833 1600.5,334.167 1600.5,421.5C 1565.5,421.5 1530.5,421.5 1495.5,421.5C 1495.5,328.167 1495.5,234.833 1495.5,141.5C 1472.16,141.667 1448.83,141.5 1425.5,141C 1440.12,130.048 1454.45,118.714 1468.5,107C 1502.73,79.5651 1537.73,78.5651 1573.5,104C 1589.87,118.975 1598.87,137.475 1600.5,159.5 Z"/></g>
<g><path style="opacity:0.991" fill="#ed0e0e" d="M 1210.5,421.5 C 1175.83,421.5 1141.17,421.5 1106.5,421.5C 1106.33,336.499 1106.5,251.499 1107,166.5C 1141.33,139.5 1175.67,112.5 1210,85.5C 1210.5,197.5 1210.67,309.5 1210.5,421.5 Z"/></g>
<g><path style="opacity:0.973" fill="#ed0e0e" d="M 246.5,421.5 C 205.167,421.5 163.833,421.5 122.5,421.5C 163.163,386.843 204.163,352.51 245.5,318.5C 246.5,352.827 246.833,387.16 246.5,421.5 Z"/></g>
</svg>
