<svg xmlns="http://www.w3.org/2000/svg" style="display: none;">
  
    <symbol id="icon-store" viewBox="0 0 512 512">
      <path d="m461 243l0-25c0-2-1-4-2-6l-51-103c-2-4-6-7-11-7l-307 0c-5 0-10 3-12 7l-51 103c-1 2-1 4-1 6l0 25c0 21 10 40 25 51l0 167-13 0c-7 0-12 6-12 13 0 7 5 12 12 12l410 0c7 0 13-5 13-12 0-7-6-13-13-13l-13 0 0-167c16-11 26-30 26-51z m-167 39c-21 0-38-18-38-39l0-13 77 0 0 13c0 21-17 39-39 39z m-243-39l0-13 77 0 0 13c0 21-17 39-38 39-22 0-39-18-39-39z m179-115l0 77-73 0 19-77z m80 0l19 77-73 0 0-77z m-156 102l76 0 0 13c0 21-17 39-38 39-21 0-38-18-38-39z m204 0l77 0 0 13c0 21-17 39-38 39-21 0-39-18-39-39z m69-25l-71 0-20-77 53 0z m-329-77l52 0-19 77-72 0z m-21 178c4 1 8 1 13 1 21 0 39-10 51-25 11 15 30 25 51 25 21 0 40-10 51-25 9 12 23 21 39 24l0 155-205 0 0-155z m333 155l-103 0 0-155c16-3 29-12 39-24 11 15 30 25 51 25 4 0 8 0 13-1l0 155z m-52-90c0 7-5 13-12 13-7 0-13-6-13-13 0-7 6-13 13-13 7 0 12 6 12 13z m-243 13c-3 0-6-1-9-4-5-5-5-13 0-18l26-25c5-5 13-5 18 0 5 5 5 13 0 18l-26 25c-2 3-6 4-9 4z m26 51c-3 0-7-1-9-4-5-5-5-13 0-18l77-76c5-5 13-5 18 0 5 5 5 13 0 18l-77 76c-3 3-6 4-9 4z m77 0c-4 0-7-1-9-4-5-5-5-13 0-18l25-25c5-5 13-5 18 0 5 5 5 13 0 18l-25 25c-3 3-6 4-9 4z"/>
    </symbol>
  
    <symbol id="icon-bag" viewBox="0 0 512 512">
      <path d="m218 435c-6 0-11-3-13-9-2-7 2-14 9-16l179-51c7-2 14 2 16 9 2 6-2 14-9 15l-179 52c-1 0-2 0-3 0z m243-14l-26-307c0-4-3-8-7-10l-51-26c-6-3-14 0-17 6-3 6-1 14 5 17l18 9-32 6c-1-5-1-10-2-16-12-68-29-100-55-100-10 0-19 4-27 12-18 19-29 58-34 121-1 2-1 5-1 7l-63 13-47-32 98-22c7-1 12-8 10-15-1-7-8-11-15-10l-26 6c7-34 17-54 29-54 1 0 4 1 7 7 4 6 12 7 18 3 6-4 7-12 4-17-10-16-22-19-29-19-12 0-29 6-41 33-7 13-12 31-16 53l-74 17c-5 1-9 5-10 10 0 0 0 1 0 1l-26 333c0 5 3 10 7 12l103 52c1 0 3 1 5 1 2 0 3 0 4-1l281-76c6-2 10-8 10-14z m-176-391c4-4 7-4 9-4 2 0 8 4 15 20 5 13 10 33 14 58 1 6 2 12 3 17l-68 14c6-73 19-97 27-105z m-184 108l53 35 0 305-77-38 24-302z m78 344l0-305 52-10c-1 28-1 50-1 51 0 7 6 12 13 12 0 0 0 0 0 0 7 0 13-6 13-13 0 0-1-24 0-56l73-14c3 26 4 45 4 46 0 7 6 12 13 12 7-1 13-7 12-14 0-1-1-22-4-49l57-11 23 282-255 69z"/>
    </symbol>
  
    <symbol id="icon-cart" viewBox="0 0 512 512">
      <path d="m205 512c-28 0-51-23-51-51 0-28 23-51 51-51 28 0 51 23 51 51 0 28-23 51-51 51z m0-77c-14 0-26 12-26 26 0 14 12 25 26 25 14 0 25-11 25-25 0-14-11-26-25-26z m179 77c-28 0-51-23-51-51 0-28 23-51 51-51 28 0 51 23 51 51 0 28-23 51-51 51z m0-77c-14 0-26 12-26 26 0 14 12 25 26 25 14 0 26-11 26-25 0-14-12-26-26-26z m65-321c-6-7-16-12-27-12l-313 0-3-15c-3-20-22-36-42-36l-26 0c-7 0-12 6-12 13 0 7 5 13 12 13l26 0c8 0 16 7 17 14l43 257c3 20 22 36 42 36l256 0c7 0 13-6 13-13 0-7-6-13-13-13l-256 0c-7 0-15-6-17-14l-6-38 255-22c20-2 38-19 41-38l17-103c2-11-1-21-7-29z m-18 24l-17 103c-1 9-10 17-18 17l-257 23-26-153 309 0c3 0 6 1 7 3 2 2 3 4 2 7z"/>
    </symbol>
  
    <symbol id="icon-receipt" viewBox="0 0 512 512">
      <path d="m448 512c-2 0-4 0-6-1l-45-23-46 23c-3 1-7 1-11 0l-46-23-45 23c-4 1-8 1-11 0l-46-23-45 23c-4 1-8 1-12 0l-45-23-46 23c-4 2-8 1-12-1-4-2-6-6-6-11l0-461c0-4 2-9 7-11l51-26c4-1 8-1 11 0l46 23 45-23c4-1 8-1 12 0l45 23 46-23c3-1 8-1 11 0l46 23 45-23c4-1 8-1 12 0l51 26c4 2 7 7 7 11l0 461c0 5-3 9-6 11-2 1-5 2-7 2z m-154-51c2 0 4 0 6 1l46 23 45-23c4-2 8-2 12 0l32 16 0-432-38-19-46 23c-3 2-8 2-11 0l-46-23-45 23c-4 2-8 2-12 0l-45-23-45 23c-4 2-8 2-12 0l-45-23-39 19 0 432 33-16c4-2 8-2 11 0l46 23 45-23c4-2 8-2 12 0l45 23 46-23c1-1 3-1 5-1z m0-128l-89 0 0-26 89 0c7 0 13-6 13-13 0-7-6-12-13-12l-38 0 0-13c0-7-6-13-13-13-7 0-13 6-13 13l0 13-38 0c-7 0-13 5-13 12l0 52c0 7 6 12 13 12l90 0 0 26-90 0c-7 0-13 6-13 13 0 7 6 13 13 13l38 0 0 12c0 7 6 13 13 13 7 0 13-6 13-13l0-12 38 0c7 0 13-6 13-13l0-51c0-7-6-13-13-13z m26-205l-154 0c-7 0-12-6-12-13 0-7 5-13 12-13l154 0c7 0 13 6 13 13 0 7-6 13-13 13z m51 51l-256 0c-7 0-13-6-13-13 0-7 6-12 13-12l256 0c7 0 13 5 13 12 0 7-6 13-13 13z m0 51l-256 0c-7 0-13-5-13-12 0-7 6-13 13-13l256 0c7 0 13 6 13 13 0 7-6 12-13 12z"/>
    </symbol>
  
    <symbol id="icon-credit-card" viewBox="0 0 512 512">
      <path d="m474 77l-436 0c-21 0-38 17-38 38l0 282c0 21 17 38 38 38l436 0c21 0 38-17 38-38l0-282c0-21-17-38-38-38z m-436 25l436 0c7 0 12 6 12 13l0 13-460 0 0-13c0-7 5-13 12-13z m448 52l0 76-460 0 0-76z m-12 256l-436 0c-7 0-12-6-12-13l0-141 460 0 0 141c0 7-5 13-12 13z m-39-52l26 0 0 26-26 0z m-102 0l77 0 0 26-77 0z m-77 0l51 0 0 26-51 0z"/>
    </symbol>
  
    <symbol id="icon-cash-dollar" viewBox="0 0 512 512">
      <path d="m474 461l-461 0c-7 0-13-6-13-13l0-256c0-7 6-13 13-13l461 0c7 0 12 6 12 13l0 256c0 7-5 13-12 13z m-448-26l435 0 0-230-435 0z m268-128l-89 0 0-25 89 0c7 0 13-6 13-13 0-7-6-13-13-13l-38 0 0-13c0-7-6-13-13-13-7 0-13 6-13 13l0 13-38 0c-7 0-13 6-13 13l0 51c0 7 6 13 13 13l90 0 0 25-90 0c-7 0-13 6-13 13 0 7 6 13 13 13l38 0 0 13c0 7 6 13 13 13 7 0 13-6 13-13l0-13 38 0c7 0 13-6 13-13l0-51c0-7-6-13-13-13z m154-153l-410 0c-7 0-12-6-12-13 0-7 5-13 12-13l410 0c7 0 13 6 13 13 0 7-6 13-13 13z m-26-52l-358 0c-7 0-13-5-13-12 0-7 6-13 13-13l358 0c7 0 13 6 13 13 0 7-6 12-13 12z"/>
    </symbol>
  
    <symbol id="icon-tags" viewBox="0 0 512 512">
      <path d="m397 205c-21 0-39-17-39-39 0-21 18-38 39-38 21 0 38 17 38 38 0 22-17 39-38 39z m0-51c-7 0-13 5-13 12 0 7 6 13 13 13 7 0 13-6 13-13 0-7-6-12-13-12z m51-77l-90 0c-17 0-40 9-52 22l-195 194c-7 7-11 17-11 27 0 10 4 20 11 27l67 67-28 16c-3 2-6 2-10 1-3-1-6-3-7-6l-93-159c-3-6-1-14 5-18l205-118c6-3 8-11 4-17-3-6-11-8-17-5l-205 118c-8 5-15 14-18 23-2 10-1 21 4 30l92 159c5 9 14 15 24 18 3 1 6 1 10 1 6 0 13-1 19-5l34-19 19 19c7 7 17 11 27 11 10 0 20-4 27-11l195-194c12-13 21-36 21-53l0-90c0-21-17-38-38-38z m13 128c0 10-7 27-15 34l-194 195c-2 2-5 3-9 3-3 0-6-1-9-3l-104-105c-3-2-4-6-4-9 0-3 1-7 4-9l194-194c7-8 24-15 34-15l90 0c7 0 13 6 13 13l0 90z"/>
    </symbol>
  
    <symbol id="icon-tag" viewBox="0 0 512 512">
      <path d="m192 489c-10 0-20-4-27-12l-130-130c-8-7-12-17-12-27 0-10 4-20 12-27l219-220c13-12 36-22 53-22l115 0c22 0 39 17 39 39l0 115c0 17-10 40-22 53l-220 219c-7 8-17 12-27 12z m115-412c-10 0-27 7-34 14l-220 220c-3 2-4 6-4 9 0 3 1 7 4 9l130 130c2 3 6 4 9 4 3 0 7-1 9-4l220-220c7-7 14-24 14-34l0-115c0-7-5-13-13-13z m64 102c-21 0-38-17-38-38 0-21 17-39 38-39 21 0 39 18 39 39 0 21-18 38-39 38z m0-51c-7 0-13 6-13 13 0 7 6 13 13 13 7 0 13-6 13-13 0-7-6-13-13-13z"/>
    </symbol>
  
    <symbol id="icon-screen" viewBox="0 0 512 512">
      <path d="m448 51l-410 0c-21 0-38 17-38 39l0 256c0 21 17 38 38 38l192 0 0 51-89 0c-7 0-13 6-13 13 0 7 6 13 13 13l205 0c7 0 12-6 12-13 0-7-5-13-12-13l-90 0 0-51 192 0c21 0 38-17 38-38l0-256c0-22-17-39-38-39z m13 295c0 7-6 12-13 12l-410 0c-7 0-12-5-12-12l0-256c0-7 5-13 12-13l410 0c7 0 13 6 13 13z"/>
    </symbol>
  
    <symbol id="icon-graph" viewBox="0 0 512 512">
      <path d="m499 512l-486 0c-7 0-13-6-13-13l0-486c0-6 4-11 10-13 6-1 12 2 14 7l26 51c3 7 0 14-6 17-6 4-14 1-17-5l-1-3 0 419 419 0-3-1c-6-3-9-11-5-17 3-6 10-9 17-6l51 26c5 2 8 8 7 14-2 6-7 10-13 10z m-64-397c0-21-17-38-38-38-21 0-39 17-39 38 0 12 6 23 15 30l-54 162c-7 0-14 2-19 6l-72-57c2-4 2-8 2-13 0-21-17-38-38-38-21 0-38 17-38 38 0 11 4 20 10 27l-44 89c-2-1-3-1-5-1-21 0-38 18-38 39 0 21 17 38 38 38 21 0 39-17 39-38 0-11-4-20-11-27l44-89c2 0 3 1 5 1 7 0 14-3 20-6l72 57c-2 4-2 8-2 13 0 21 17 38 38 38 21 0 38-17 38-38 0-13-5-24-14-31l53-161c21-1 38-18 38-39z m-38-13c7 0 13 6 13 13 0 7-6 13-13 13-7 0-13-6-13-13 0-7 6-13 13-13z m-205 128c7 0 13 6 13 13 0 7-6 13-13 13-7 0-13-6-13-13 0-7 6-13 13-13z m-77 180c-7 0-13-6-13-13 0-7 6-13 13-13 7 0 13 6 13 13 0 7-6 13-13 13z m205-52c-7 0-13-5-13-12 0-7 6-13 13-13 7 0 13 6 13 13 0 7-6 12-13 12z"/>
    </symbol>
  
    <symbol id="icon-truck" viewBox="0 0 512 512">
      <path d="m507 344l0-1c0 0 0 0 0 0l-11-51c0 0 0 0 0 0l-5-26c-4-20-23-36-43-36l-102 0c-5 0-9 1-13 3l0-15c0-22-17-39-39-39l-256 0c-21 0-38 17-38 39l0 204c0 22 17 39 38 39l39 0c0 28 23 51 51 51 28 0 51-23 51-51l130 0c6 15 20 25 37 25l19 0c9 16 26 26 45 26 19 0 35-10 44-26l20 0c21 0 38-17 38-38l0-51c0-15-2-39-5-53z m-29-11l-68 0 0-26 63 0z m-350 153c-14 0-26-11-26-25 0-14 12-26 26-26 14 0 26 12 26 26 0 14-12 25-26 25z m44-51c-9-15-25-25-44-25-19 0-35 10-44 25l-46 0c-7 0-12-6-12-13l0-204c0-7 5-13 12-13l256 0c7 0 13 6 13 13l0 217z m238 51c-15 0-26-11-26-25 0-14 11-26 26-26 14 0 25 12 25 26 0 14-11 25-25 25z m64-25l-13 0c0-28-23-51-51-51-29 0-52 23-52 51l-12 0c-7 0-13-6-13-13l0-179c0-7 6-13 13-13l102 0c8 0 16 7 18 15l2 11-71 0c-7 0-13 5-13 12l0 52c0 7 6 12 13 12l86 0c1 8 2 18 3 26l-12 0c-7 0-13 6-13 13 0 7 6 13 13 13l12 0 0 38c0 7-5 13-12 13z"/>
    </symbol>
  
    <symbol id="icon-magnifier" viewBox="0 0 512 512">
      <path d="m483 491l-152-166c34-36 53-83 53-133 0-51-20-100-56-136-36-36-85-56-136-56-51 0-99 20-136 56-36 37-56 85-56 136 0 51 20 100 56 136 37 36 85 56 136 56 44 0 86-15 120-42l152 166c3 3 6 4 10 4 3 0 6-1 8-3 6-5 6-13 1-18z m-457-299c0-92 74-166 166-166 92 0 166 74 166 166 0 92-74 166-166 166-92 0-166-74-166-166z"/>
    </symbol>
  
    <symbol id="icon-menu" viewBox="0 0 512 512">
      <path d="m448 154l-384 0c-7 0-13-6-13-13 0-7 6-13 13-13l384 0c7 0 13 6 13 13 0 7-6 13-13 13z m0 128l-384 0c-7 0-13-6-13-13 0-7 6-13 13-13l384 0c7 0 13 6 13 13 0 7-6 13-13 13z m0 128l-384 0c-7 0-13-6-13-13 0-7 6-13 13-13l384 0c7 0 13 6 13 13 0 7-6 13-13 13z"/>
    </symbol>
  
    <symbol id="icon-list" viewBox="0 0 512 512">
      <path d="m499 410l-384 0c-7 0-13-6-13-13 0-7 6-13 13-13l384 0c7 0 13 6 13 13 0 7-6 13-13 13z m0-128l-384 0c-7 0-13-6-13-13 0-7 6-13 13-13l384 0c7 0 13 6 13 13 0 7-6 13-13 13z m0-128l-384 0c-7 0-13-6-13-13 0-7 6-13 13-13l384 0c7 0 13 6 13 13 0 7-6 13-13 13z m-461 25c-21 0-38-17-38-38 0-21 17-39 38-39 22 0 39 18 39 39 0 21-17 38-39 38z m0-51c-7 0-12 6-12 13 0 7 5 13 12 13 7 0 13-6 13-13 0-7-6-13-13-13z m0 179c-21 0-38-17-38-38 0-21 17-39 38-39 22 0 39 18 39 39 0 21-17 38-39 38z m0-51c-7 0-12 6-12 13 0 7 5 13 12 13 7 0 13-6 13-13 0-7-6-13-13-13z m0 179c-21 0-38-17-38-38 0-21 17-39 38-39 22 0 39 18 39 39 0 21-17 38-39 38z m0-51c-7 0-12 6-12 13 0 7 5 13 12 13 7 0 13-6 13-13 0-7-6-13-13-13z"/>
    </symbol>
  
    <symbol id="icon-chevron-left" viewBox="0 0 512 512">
      <path d="m358 512c4 0 7-1 9-4 5-5 5-13 0-18l-221-221 221-222c5-5 5-13 0-18-5-5-13-5-18 0l-230 231c-5 5-5 13 0 18l230 230c3 3 6 4 9 4z"/>
    </symbol>
  
    <symbol id="icon-chevron-right" viewBox="0 0 512 512">
      <path d="m128 512c-3 0-7-1-9-4-5-5-5-13 0-18l221-221-221-222c-5-5-5-13 0-18 5-5 13-5 18 0l230 231c5 5 5 13 0 18l-230 230c-2 3-6 4-9 4z"/>
    </symbol>
  
    <symbol id="icon-home3" viewBox="0 0 512 512">
      <path d="m13 307c-3 0-6-1-9-3-5-5-5-13-1-18l226-250c7-8 17-12 27-12 10 0 20 4 27 12l226 250c4 5 4 13-1 18-5 5-14 4-18-1l-226-250c-2-2-5-3-8-3-3 0-6 1-8 3l-226 250c-2 3-6 4-9 4z m384 205l-103 0c-7 0-12-6-12-13l0-89-52 0 0 89c0 7-5 13-12 13l-103 0c-21 0-38-17-38-38l0-205c0-7 6-13 13-13 7 0 12 6 12 13l0 205c0 7 6 12 13 12l90 0 0-89c0-7 6-13 13-13l76 0c7 0 13 6 13 13l0 89 90 0c7 0 13-5 13-12l0-205c0-7 5-13 12-13 7 0 13 6 13 13l0 205c0 21-17 38-38 38z"/>
    </symbol>
  
    <symbol id="icon-cog" viewBox="0 0 512 512">
      <path d="m195 504c-1 0-2 0-3 0-23-6-45-15-65-27-6-4-9-11-5-17 4-8 6-16 6-25 0-28-23-51-51-51-9 0-17 2-25 6-6 3-13 1-17-5-12-20-21-42-27-65-2-7 2-13 8-16 21-7 35-26 35-48 0-22-14-42-35-49-6-2-10-8-8-15 6-23 15-45 27-65 4-6 11-9 17-5 8 4 16 6 25 6 28 0 51-23 51-51 0-9-2-17-6-25-4-6-1-13 5-17 20-12 42-21 65-27 7-2 13 2 15 8 7 21 27 35 49 35 22 0 41-14 48-35 3-6 9-10 16-8 23 6 45 15 65 27 6 4 8 11 5 17-4 8-6 16-6 25 0 28 23 51 51 51 9 0 17-2 25-6 6-4 13-1 17 5 12 20 21 42 27 65 2 7-2 13-8 15-21 7-35 27-35 49 0 22 14 41 35 48 6 3 10 9 8 16-6 23-15 45-27 65-4 6-11 8-17 5-8-4-16-6-25-6-28 0-51 23-51 51 0 9 2 17 6 25 3 6 1 13-5 17-20 12-42 21-65 27-7 2-13-2-16-8-7-21-26-35-48-35-22 0-42 14-49 35-1 5-6 8-12 8z m61-69c29 0 55 16 68 41 13-4 26-9 39-16-3-8-5-16-5-25 0-42 35-77 77-77 9 0 17 2 25 5 7-13 12-26 16-39-25-13-41-39-41-68 0-29 16-55 41-68-4-13-9-26-16-39-8 3-16 5-25 5-42 0-77-35-77-77 0-9 2-17 5-25-13-7-26-12-39-16-13 25-39 41-68 41-29 0-55-16-68-41-13 4-26 9-39 16 3 8 5 16 5 25 0 42-35 77-77 77-9 0-17-2-25-5-7 13-12 26-16 39 25 13 41 39 41 68 0 29-16 55-41 68 4 13 9 26 16 39 8-3 16-5 25-5 42 0 77 35 77 77 0 9-2 17-5 25 13 7 26 12 39 16 13-25 39-41 68-41z m0-102c-42 0-77-35-77-77 0-42 35-77 77-77 42 0 77 35 77 77 0 42-35 77-77 77z m0-128c-28 0-51 23-51 51 0 28 23 51 51 51 28 0 51-23 51-51 0-28-23-51-51-51z"/>
    </symbol>
  
    <symbol id="icon-fa-solid-900" viewBox="0 0 512 512">
      <path d="m128 513l0-343c0-24 29-36 46-19l171 171c10 11 10 28 0 38l-171 172c-17 17-46 5-46-19z"/>
    </symbol>
  
    <symbol id="icon-fa-solid-900-1" viewBox="0 0 512 512">
      <path d="m384 170l0 343c0 24-29 36-46 19l-171-172c-10-10-10-27 0-38l171-171c17-17 46-5 46 19z"/>
    </symbol>
  
    <symbol id="icon-arrow-left-sm" viewBox="0 0 512 512">
      <path d="m485 234l-400 0 63-63c10-9 10-25 0-33-10-10-25-10-35-1l-103 102c-5 5-8 11-8 17 0 6 3 12 8 17l103 101c10 10 25 10 34 0 10-9 10-24 0-33l-60-59 398 0c14 0 25-11 25-24 0-14-11-24-25-24z"/>
    </symbol>
  
    <symbol id="icon-arrow-right-sm" viewBox="0 0 512 512">
      <path d="m500 238l-103-102c-10-10-26-10-35 0-9 10-9 25 0 34l64 62-402 0c-13 0-24 10-24 24 0 14 11 24 24 24l399 0-61 59c-9 10-9 25 0 34 10 9 26 9 35 0l103-102c5-4 7-10 7-17 0-6-2-12-7-16z"/>
    </symbol>
  
    <symbol id="icon-vv-logo" viewBox="0 0 512 512">
      <path d="m308 303l26 48 167-295-52 0z m-42-73l26 47 126-221-52 0z m235 179l-501 0 0 47 501 0z m-245-306l-89 153-89-153z m78-47l-334 0 167 295z"/>
    </symbol>
  
    <symbol id="icon-search" viewBox="0 0 512 512">
      <path d="m503 468l-122-122c66-83 60-204-16-280-83-82-216-82-299 0-83 82-82 216 0 299 76 76 197 82 280 16l122 122c10 10 25 10 34 0 10-10 10-25 1-35z m-167-132c-66 67-174 67-241 0-67-66-67-174 0-241 67-67 175-67 241 0 67 67 67 175 0 241z"/>
    </symbol>
  
    <symbol id="icon-0244-theater" viewBox="0 0 512 512">
      <path d="m294 205c-4 0-8-2-11-6 0-1-12-20-27-20-15 0-27 19-27 19-4 7-12 9-18 5-6-3-8-11-4-17 0-2 19-32 49-32 30 0 49 30 49 32 4 6 2 14-4 17-2 1-4 2-7 2z m128 0c-4 0-8-2-11-7 0 0-12-19-27-19-15 0-27 19-27 19-4 7-12 9-18 5-6-3-8-11-4-17 0-2 19-32 49-32 30 0 49 30 49 32 4 6 2 14-4 17-2 1-4 2-7 2z m-102 153c-58 0-87-55-88-58-2-4-2-9 0-12 3-4 7-6 11-6l154 0c4 0 8 2 11 6 2 3 2 8 0 12-1 3-30 58-88 58z m-52-51c11 12 28 26 52 26 24 0 41-14 52-26l-104 0z m239-253c-4-3-8-3-12-2-1 0-76 25-175 25-99 0-174-25-174-25-4-1-9-1-12 2-3 2-5 6-5 10 0 2 0 26 3 61-68-6-114-22-114-22-4-1-9-1-12 2-3 2-5 6-5 10 0 3 0 59 11 128 7 41 16 78 28 109 15 40 33 71 56 93 27 28 59 41 96 41 42 0 78-17 107-52 7 1 14 1 21 1 45 0 83-20 114-61 23-31 42-74 55-128 23-90 23-178 23-182 0-4-2-8-5-10z m-315 407c-30 0-56-11-78-34-73-72-85-240-87-295 21 6 59 15 107 19 2 13 4 27 6 41 2 11 4 21 6 30-5 5-11 8-18 8-15 0-27-19-27-19-4-6-12-8-18-4-6 3-8 11-4 17 0 1 19 32 49 32 9 0 17-3 24-7 5 19 10 36 16 52 5 13 10 25 16 36-34 13-54 52-55 54-2 4-1 9 1 12 2 4 6 7 11 7l100 0c10 7 20 12 30 16-22 23-48 35-79 35z m22-77l-50 0c8-10 19-21 32-24 6 9 12 17 18 24z m250-144c-12 51-29 91-51 119-25 34-56 51-93 51-25 0-47-8-66-23 0 0 0 0 0 0-4-3-8-7-12-11-11-10-20-23-28-36 0-1 0-1 0-1-48-82-58-211-59-258 28 8 89 21 165 21 76 0 137-13 166-21-1 30-6 95-22 159z"/>
    </symbol>
  
    <symbol id="icon-sleepboldman" viewBox="0 0 512 512">
      <path d="m495 243c0-14-6-29-16-39-11-10-25-16-40-16-4 0-8 1-12 1-3-6-5-14-9-22-5-12-10-24-16-36-9-18-19-35-30-52l-3-2c0-1 0-1 0-2-6-8-14-18-21-26-30-33-60-49-93-49-27 1-54 12-73 31-7 6-13 12-19 18-7 7-14 15-20 24 0 0 0 0 0 0-1 2-3 4-4 6-2 3-4 6-7 10-8 13-17 28-24 42-3 7-7 15-11 23-1 4-3 8-5 12-3 8-6 15-8 23-3 0-7-1-11-1-30 0-55 24-56 53-1 28 18 51 44 56-1 6-1 13-1 19 0 108 88 196 196 196 108 0 196-88 196-196 0-6 0-12-1-19 25-5 44-27 44-54z m-461-2c1-20 18-36 39-36 2 0 4 0 6 1 0 3-1 6-2 9-1 3-2 4-2 7-4 14-7 28-9 43 0 2-1 4-1 6-1 4-1 7-2 10-18-5-30-21-29-40z m222 254c-99 0-179-80-179-179 0-9 1-16 2-25 3-30 10-60 20-89l1-1c3-9 7-18 10-27 2-4 3-8 5-13 4-7 7-15 10-22 7-14 15-27 23-41 2-3 5-6 6-9 1-1 2-3 3-4 0 0 1-1 1-1 6-8 12-16 19-23 5-6 11-12 18-17 17-16 39-25 62-26 26 0 53 14 80 43 7 8 13 16 19 23 0 1 1 1 1 2l2 4c11 15 21 32 29 49 6 12 11 24 16 35 5 9 8 19 11 28 0 0 0 1 0 1 10 28 17 58 20 88 1 9 2 16 2 25-2 99-83 179-181 179z m222-252c0 18-12 33-29 37-1-4-1-7-2-9 0-3-1-5-1-7-1-7-2-14-4-21-2-7-3-13-5-21-1-3-1-4-2-6-1-4-2-7-2-9 2-1 5-1 7-1 11 0 20 4 28 11 6 7 10 16 10 26z m-268 64c-40-1-53 27-53 27-2 3-4 5-8 5-1 0-2 0-3-1-4-2-6-7-4-11 1-2 18-39 69-36 5 0 8 4 8 9-1 4-5 8-9 7z m161 19c2 4 0 9-4 11-1 1-3 1-3 1-4 0-6-2-8-5-1 0-15-27-54-26-5 0-8-3-8-8 0-5 3-9 8-9 51-2 68 35 69 36z m-143 36c-10 9-19 13-28 13-1 0-2 0-3 0-15-1-24-13-25-15-2-4-1-9 3-12 4-2 9-2 12 3 0 0 5 7 12 7 5 1 11-2 18-8 3-4 8-4 12 0 3 3 2 8-1 12z m110-14c4 3 5 8 2 12 0 2-9 14-24 15-1 0-2 0-3 0-9 0-19-4-28-13-3-4-3-9 0-12 3-4 9-4 12 0 6 6 12 9 18 8 7 0 12-7 12-7 2-4 7-5 11-3z m-81 45c-1 0-1 0-2 0-19 1-35 18-33 38 0 16 0 38 34 38 34 0 34-22 34-38 1-20-14-37-33-38z m16 38c0 17 0 21-17 21-17 0-17-4-17-22-1-10 7-20 17-20 10 0 18 10 17 21z m-43-207c0-5 2-10 7-11l36-6c3-1 7 0 9 3 1 2 2 6 0 9l-18 34 17-4c4-1 9 2 10 7 1 4-2 9-7 10l-37 7c0 0 0 0-1 0-3 0-5-2-7-3-2-3-3-6-1-10l19-33-17 3c-4 1-9-1-10-6z m155-18c1 3-1 6-4 8l-48 35 30 7c4 1 7 6 6 10 0 5-4 7-8 7-1 0-2 0-2 0l-48-11c-4-1-6-3-7-7-1-3 1-7 3-8l49-35-29-7c-4-1-8-6-7-10 1-5 6-8 10-6l49 11c3 0 6 2 6 6z"/>
    </symbol>
  
    <symbol id="icon-down-dir" viewBox="0 0 512 512">
      <path d="m512 0l-256 512-256-512z"/>
    </symbol>
  
    <symbol id="icon-oli-lokbra" viewBox="0 0 512 512">
      <path d="m256 512c-141 0-256-115-256-256 0-141 115-256 256-256 141 0 256 115 256 256 0 141-115 256-256 256z m0-448c-106 0-192 86-192 192 0 106 86 192 192 192 106 0 192-86 192-192 0-106-86-192-192-192z"/>
    </symbol>
  
</svg>
